<svg id="Layer_1" data-name="Layer 1" xmlns="http://www.w3.org/2000/svg" viewBox="0 0 657.77 80.37"><defs><style>.cls-1{fill:#fda305;}.cls-2{fill:#deec1e;}.cls-3{fill:#06c5bc;}.cls-4{fill:#e02f00;}.cls-5{fill:#7d0096;}.cls-6{fill:#172d5a;}</style></defs><path class="cls-1" d="M365.87,12.66,363.65,23H346.21L336.05,71H323.79L334,23H316.43l2.21-10.32Z"/><path class="cls-2" d="M360.53,71l12.38-58.3H385l-4.75,22.23H403l4.74-22.23h12.1L407.47,71h-12.1l5.5-26H378.09l-5.5,26Z"/><path class="cls-3" d="M472.38,23H441.53l-2.61,12.38h28.32l-2.18,10.13H436.74l-3.16,15h32.27L463.64,71H419.46l12.38-58.3h42.75Z"/><path class="cls-4" d="M519.09,65.77q-8,6.81-20.53,6.81t-17.68-6.81q-7.08-8.34-3.72-24,3.4-16,14-24,8-6.79,20.52-6.8t17.68,6.8q7.13,8,3.72,24Q529.69,57.44,519.09,65.77Zm1.78-24q2.05-9.81-1-15.17T509.48,21.2a17.54,17.54,0,0,0-12.68,5.34q-5.43,5.34-7.53,15.19t1.07,15.19q3.15,5.34,10.4,5.33a17.39,17.39,0,0,0,12.63-5.33Q518.77,51.58,520.87,41.73Z"/><path class="cls-5" d="M591.23,18.23a14.18,14.18,0,0,1,2,4.91,15.66,15.66,0,0,1-.18,6.13,21.66,21.66,0,0,1-3.86,8.17A15.73,15.73,0,0,1,581,43.11a8.06,8.06,0,0,1,4.72,4.61q1.05,3-.26,9.12l-.83,3.91a33.33,33.33,0,0,0-.83,5.42,3.78,3.78,0,0,0,1.51,3.32L585.06,71H571.65c-.1-1.3-.16-2.34-.16-3.13a27.56,27.56,0,0,1,.56-5l1.07-5.42q1.1-5.58-.46-7.44t-6.94-1.85H553.14L548.32,71H536.41l12.38-58.3h28.6q6.09.12,9.09,1.5A11,11,0,0,1,591.23,18.23Zm-32.71,4.55L555.2,38.45H569a17,17,0,0,0,6.37-1q4-1.66,5.06-6.57c.74-3.53.07-5.91-2-7.12a12,12,0,0,0-5.73-1Z"/><path class="cls-6" d="M637.31,12.66h13.8L623.86,49,619.23,71H607.05L611.68,49,599.26,12.66h14.36l6.68,25.39Z"/><rect x="78.24" y="14.25" width="7.85" height="57.19"/><polygon points="258.01 14.25 258.01 71.44 296.43 71.44 296.43 63.59 265.86 63.59 265.86 14.25 258.01 14.25"/><path d="M204.15,14.25,180.92,71.43h8.47l5.34-13.12h27.09l5.34,13.12h8.47L212.4,14.25ZM208.27,25l10.5,25.82h-21Z"/><path d="M153.43,14.25l-17,22.94-17-22.94h-9.78L131.5,43.78,111,71.43h9.78l15.63-21.06,4.89-6.59L163.2,14.25Zm-7.76,46.39,7.76,10.79h9.77l-16-22.14-1.44,1.94a8,8,0,0,0-.06,9.41"/><path d="M15,46.78H35.16a8.42,8.42,0,0,1-.43,16.82H15ZM40.8,36.34a8.37,8.37,0,0,1-5.64,2.58H15V22.1H34.73A8.42,8.42,0,0,1,40.8,36.34m5.43,7.34h0q-.43-.43-.9-.84c.31-.26.61-.54.9-.82a16.42,16.42,0,0,0,3.48-5.17,16.26,16.26,0,0,0-15-22.6H7.1V71.44H34.73a16.25,16.25,0,0,0,11.5-4.76,16.42,16.42,0,0,0,3.48-5.17,16.24,16.24,0,0,0-3.48-17.83"/></svg>