<svg id="Layer_1" data-name="Layer 1" xmlns="http://www.w3.org/2000/svg" viewBox="0 0 737.63 88.74"><rect x="78.42" y="12.97" width="8.65" height="63.04"/><polygon points="276.58 12.97 276.58 76.01 318.94 76.01 318.94 67.36 285.24 67.36 285.24 12.97 276.58 12.97"/><path d="M217.22,13,191.61,76h9.33l5.89-14.47H236.7L242.58,76h9.34L226.31,13Zm4.54,11.81,11.57,28.46H210.2Z"/><path d="M161.3,13,142.52,38.26,123.75,13H113l24.17,32.55L114.51,76h10.78l17.23-23.23,5.39-7.26L172.08,13Zm-8.55,51.14L161.3,76h10.78L154.4,51.6l-1.58,2.14a8.81,8.81,0,0,0-.07,10.37"/><path d="M8.65,48.83H30.93a9.28,9.28,0,0,1-.48,18.54H8.65Zm28.5-11.5a9.3,9.3,0,0,1-6.22,2.84H8.65V21.63h21.8a9.28,9.28,0,0,1,6.7,15.7m6,8.08h0c-.32-.32-.64-.62-1-.92.35-.29.67-.6,1-.91a17.93,17.93,0,0,0,0-25.36A18,18,0,0,0,30.45,13H0V76H30.45A18,18,0,0,0,47,65.07a18,18,0,0,0,0-14,17.7,17.7,0,0,0-3.84-5.69"/><path d="M349.65,27.28H331.86V13h51.86V27.28H366V76.47H349.65Z"/><path d="M436.14,51H409.78v25.5H393.42V13h16.36V36.7h26.36V13h16.37V76.47H436.14Z"/><path d="M465.82,13h46.53V26.8H482.19V37.36h29.49v13.9H482.19V62.68h30.16V76.47H465.82Z"/><path d="M554.5,12c19.41,0,33.87,13.51,33.87,32.83S573.91,77.61,554.5,77.61s-34-13.51-34-32.82S535.09,12,554.5,12Zm0,14.46c-10.56,0-17.32,8-17.32,18.37s6.76,18.36,17.32,18.36,17.22-8.09,17.22-18.36S565,26.42,554.5,26.42Z"/><path d="M623.28,55h-8.37v21.5H598.54V13h31.78c14.09,0,22.08,9.32,22.08,21.12,0,11-6.75,16.94-12.65,19l12.94,23.31H633.94Zm4.57-28.17H614.91V41.08h12.94c4.28,0,7.9-2.76,7.9-7.14S632.13,26.8,627.85,26.8Z"/><path d="M678.85,50.88,654.77,13h18.46L687,36.41,700.64,13h18.55l-24,37.87V76.47H678.85Z"/></svg>