<?xml version="1.0" encoding="UTF-8"?>
<svg width="185px" height="18px" viewBox="0 0 185 18" version="1.1" xmlns="http://www.w3.org/2000/svg" xmlns:xlink="http://www.w3.org/1999/xlink">
    <title>logo/primary</title>
    <defs>
        <path d="M36.9664605,6.01840502 L32.0918429,0 L29.2941176,0 L35.5675239,7.74601014 L29.6938138,15 L32.4915391,15 L36.9664605,9.4735249 L38.3652492,7.74601014 L44.6386555,0 L41.8409302,0 L36.9664605,6.01840502 Z M54.7521008,9.57446809 L57.7156325,2.87234043 L60.6806723,9.57446809 L54.7521008,9.57446809 Z M56.5337876,0 L49.8697479,15 L52.2980289,15 L53.8297093,11.5562439 L61.601483,11.5562439 L63.1330152,15 L65.5630252,15 L58.8990349,0 L56.5337876,0 Z M39.8668891,9.75807758 C39.261709,10.4815636 39.2538338,11.4681801 39.8474534,12.1991726 L42.1216745,15 L44.987395,15 L40.2873549,9.25531915 L39.8668891,9.75807758 Z M74.1213474,12.9414413 L74.1213474,0 L71.8403361,0 L71.8403361,15 L83,15 L83,12.9414413 L74.1213474,12.9414413 Z M20.5756303,15 L22.6668741,15 L22.6680672,0 L20.5756303,0 L20.5756303,15 Z M9.79580925,5.69806572 C9.37086555,6.11043185 8.80229754,6.35310242 8.19099995,6.38297872 C7.9326134,6.3815604 6.04966982,6.38027933 2.44117647,6.38027933 L2.44117647,1.91489362 L8.06869143,1.91489362 C9.38767317,1.91489362 10.4621849,2.9167333 10.4621849,4.14966821 C10.4621849,4.73054032 10.2253591,5.27984329 9.79580925,5.69806572 L9.79580925,5.69806572 Z M8.06869143,13.0851064 L2.44117647,13.0851064 L2.44117647,8.61985792 L3.66994588,8.61985792 C5.65839036,8.6184396 7.9082595,8.6184396 8.19099995,8.61702128 C8.80229754,8.64561651 9.37086555,8.88961391 9.79580925,9.30207154 C10.2253591,9.72015671 10.4621849,10.2695054 10.4621849,10.8503318 C10.4621849,12.0832667 9.38767317,13.0851064 8.06869143,13.0851064 L8.06869143,13.0851064 Z M12.1874329,5.92704343 C12.4301402,5.40010479 12.5546218,4.84078015 12.5546218,4.26591747 C12.5546218,3.69114512 12.4301402,3.13322071 12.1874329,2.60488184 C11.9523117,2.09637205 11.6173885,1.64125172 11.1917271,1.24954831 C10.7645386,0.857980415 10.2668089,0.550787743 9.71203529,0.336687866 C9.13740965,0.114051095 8.52904046,0 7.9021,0 L0,0 L0,15 L7.9021,15 C8.52904046,15 9.13740965,14.8858586 9.71203529,14.6633121 C10.2668089,14.4491219 10.7630115,14.1420196 11.1917271,13.7503162 C11.6173885,13.3587031 11.9538388,12.9022729 12.1874329,12.3949827 C12.4301402,11.8681795 12.5530948,11.3088549 12.5530948,10.733947 C12.5530948,10.1577744 12.4301402,9.59989521 12.1874329,9.07295657 C11.9538388,8.56566633 11.6187678,8.10932644 11.1917271,7.71762304 C11.1087721,7.6415137 11.0242901,7.56969538 10.935079,7.49932247 C11.0242901,7.43030462 11.1087721,7.35695057 11.1917271,7.28228662 C11.6173885,6.89067356 11.9538388,6.43419816 12.1874329,5.92704343 L12.1874329,5.92704343 Z" id="path-1"></path>
    </defs>
    <g id="logo/primary" stroke="none" stroke-width="1" fill="none" fill-rule="evenodd">
        <g id="logo" transform="translate(0.000000, 1.000000)">
            <mask id="mask-2" fill="white">
                <use xlink:href="#path-1"></use>
            </mask>
            <use fill="#000000" xlink:href="#path-1"></use>
            <g id="Group" mask="url(#mask-2)" fill="#000000">
                <g id="color">
                    <rect id="swatch" x="0" y="0" width="83" height="15"></rect>
                </g>
            </g>
        </g>
        <g id="theory" transform="translate(91.000000, 0.000000)" fill-rule="nonzero">
            <polygon id="Path" stroke="#FDA305" stroke-width="0.5" fill="#FDA305" points="13 1 12.4020239 3.65119001 7.83348666 3.65119001 5.16053358 16 1.94940202 16 4.61637534 3.65119001 0 3.65119001 0.597976081 1"></polygon>
            <polygon id="Path" stroke="#55052A" fill="#55052A" points="12 16 15.1288344 1 18.1828988 1 16.9808282 6.73546625 22.732362 6.73546625 23.940184 1 27 1 23.8711656 16 20.8113497 16 22.2032209 9.29886851 16.4516871 9.29886851 15.0483129 16"></polygon>
            <polygon id="Path" stroke="#06C5BC" fill="#06C5BC" points="40.3945634 3.65119001 32.0172982 3.65119001 31.3068369 6.84081155 38.9736409 6.84081155 38.3558484 9.44518143 30.7199341 9.44518143 29.8612026 13.3019899 38.6276771 13.3019899 38.0098847 16 26 16 29.3855025 1 41 1"></polygon>
            <path d="M52.1038027,14.2263098 C50.6131436,15.4388609 48.7342647,16.0671316 46.816497,15.9943107 C44.6624095,15.9943107 43.1388822,15.4049771 42.245915,14.2263098 C41.0239599,12.7844069 40.7008468,10.7119169 41.2765756,8.00884 C41.864054,5.25861639 43.0664265,3.18023312 44.883693,1.77369018 C46.3743522,0.561139126 48.2532311,-0.0671316358 50.1709987,0.00568928655 C52.3211697,0.00568928655 53.8486136,0.595022918 54.7357059,1.77369018 C55.9733271,3.15665977 56.302315,5.23504304 55.7226697,8.00884 C55.294605,10.448125 54.0110225,12.6534105 52.1038027,14.2263098 L52.1038027,14.2263098 Z M52.5620358,8.00884 C52.9203977,6.31155915 52.8264011,5.00323848 52.2917958,4.07798468 C51.7360111,3.14804101 50.7018366,2.61561015 49.6246438,2.70483732 C48.3854711,2.68387251 47.1919927,3.17384915 46.3230151,4.06030467 C45.3068762,5.15651216 44.6382457,6.53081526 44.4019608,8.00884 C44.0435989,9.70612086 44.1317207,11.0203349 44.6780756,11.9396953 C45.2426454,12.8693463 46.2812255,13.4005353 47.3628519,13.3128427 C48.5949901,13.3205362 49.7760964,12.8197511 50.6292319,11.9279087 C51.6427422,10.840006 52.314902,9.47709471 52.5620358,8.00884 L52.5620358,8.00884 Z" id="Shape" stroke="#E02F00" fill="#E02F00"></path>
            <path d="M71.4253563,2.43926872 C71.6744423,2.82529703 71.8495847,3.25220641 71.9422649,3.69923295 C72.032996,4.22461878 72.0166566,4.76228711 71.8941804,5.28151361 C71.7096093,6.04522141 71.3613837,6.76220732 70.8723843,7.38536086 C70.3401057,8.08753219 69.5863316,8.60013002 68.7266126,8.84457524 C69.2935307,9.04696304 69.7471688,9.47224862 69.9768101,10.016635 C70.1587912,10.790853 70.1360408,11.597458 69.9106939,12.3607545 L69.688303,13.3687259 C69.5772181,13.8270989 69.5048491,14.2935772 69.4719226,14.763477 C69.4460366,15.0959436 69.5955358,15.418386 69.8686199,15.6190806 L69.7904826,16 L66.2803126,16 C66.2803126,15.665963 66.2382386,15.4139701 66.2382386,15.1912788 C66.2459323,14.7561976 66.2942159,14.3227016 66.3824922,13.8961528 L66.6649887,12.5014017 C66.8633374,11.546173 66.8212634,10.9074004 66.5447774,10.585084 C66.2682914,10.2627675 65.6612243,10.1103998 64.7416079,10.1103998 L61.4177654,10.1103998 L60.1435256,15.9706985 L57,15.9706985 L60.2096418,1.00349553 L67.7649221,1.00349553 C68.5846664,0.976323581 69.4018089,1.10778133 70.1691482,1.39027525 C70.683912,1.6129116 71.1205957,1.97756324 71.4253563,2.43926872 L71.4253563,2.43926872 Z M62.7821636,3.61132847 L61.9046211,7.643214 L65.5530342,7.643214 C66.1224954,7.6658219 66.691267,7.58432858 67.2299818,7.40294175 C67.9489263,7.1046861 68.4567578,6.46300812 68.5703379,5.70931542 C68.7626759,4.80096911 68.5703379,4.18563775 68.0353976,3.87504191 C67.5603399,3.66733105 67.0401654,3.576765 66.5207352,3.61132847 L62.7821636,3.61132847 Z" id="Shape" stroke="#7D0096" fill="#7D0096"></path>
            <polygon id="Path" stroke="#172D5A" fill="#172D5A" points="83.2760736 1 87 1 79.6380368 10.3603744 78.4110429 16 75.1226994 16 76.3496933 10.3603744 73 1 76.8711656 1 78.6748466 7.52886115"></polygon>
        </g>
    </g>
</svg>