<?xml version="1.0" encoding="UTF-8"?>
<svg width="191px" height="21px" viewBox="0 0 191 21" version="1.1" xmlns="http://www.w3.org/2000/svg" xmlns:xlink="http://www.w3.org/1999/xlink">
    <title>logo/primary</title>
    <g id="logo/primary" stroke="none" stroke-width="1" fill="none" fill-rule="evenodd">
        <g id="Bixal_Logo_Black" transform="translate(0.000000, 1.000000)" fill="#000000" fill-rule="nonzero">
            <polygon id="Path" points="21 0 21 17 22.9982942 17 23 0"></polygon>
            <polygon id="Path" points="74 0 74 17 86 17 86 14.6665691 76.4525013 14.6665691 76.4525013 0"></polygon>
            <path d="M58.219563,0 L51,17 L53.6305931,17 L55.289282,13.0974467 L63.7086368,13.0974467 L65.3673257,17 L68,17 L60.7814776,0 L58.219563,0 Z M59.4994797,3.18277114 L62.760666,10.8594519 L56.239334,10.8594519 L59.4994797,3.18277114 Z" id="Shape"></path>
            <path d="M44.0821884,0 L38.9990007,6.82050832 L33.9168124,0 L31,0 L37.5410942,8.77875381 L31.4166875,17 L34.3334999,17 L39,10.7369993 L40.4589058,8.77875381 L47,0 L44.0821884,0 Z M41.7669248,13.790349 L44.0821884,17 L46.9990007,17 L42.2145891,10.417428 L41.7869098,10.993851 C41.1703722,11.822148 41.1623782,12.9520965 41.7669248,13.790349" id="Shape"></path>
            <path d="M2.50389135,9.66906728 L3.88188616,9.66906728 C6.11124676,9.66707653 8.63329773,9.66707653 8.950557,9.66608115 C9.63634976,9.69793313 10.2730047,9.97066573 10.7494277,10.4325195 C11.2311918,10.9003455 11.4961087,11.5144915 11.4961087,12.164471 C11.4961087,13.54406 10.2911644,14.6648516 8.81275752,14.6648516 L2.50389135,14.6648516 L2.50389135,9.66906728 Z M10.7494277,6.56748053 C10.2730047,7.02933427 9.63528155,7.30007612 8.950557,7.33391885 C8.66107127,7.3319281 6.55028231,7.33093272 2.50389135,7.33093272 L2.50389135,2.33415305 L8.81275752,2.33415305 C10.2911644,2.33415305 11.4961087,3.45494467 11.4961087,4.83453364 C11.4961087,5.48451314 11.2301236,6.09965455 10.7494277,6.56748053 M12.4810011,8.74635517 L12.4810011,8.74635517 C12.3880665,8.6597576 12.2940638,8.57913227 12.19472,8.49850694 C12.2940638,8.41987236 12.3880665,8.33725628 12.4810011,8.25264945 C12.9552877,7.80871245 13.3312986,7.29111775 13.5908744,6.7167867 C13.8611323,6.11956204 14,5.48550852 14,4.83453364 C14,4.18355876 13.8611323,3.55050061 13.5908744,2.95228058 C13.3291622,2.37595878 12.9552877,1.86035482 12.4810011,1.41641782 C12.0045781,0.972480824 11.4491073,0.624099772 10.8306119,0.382223784 C10.1907523,0.129398677 9.51136884,0 8.81275752,0 L0,0 L0,17 L8.81275752,17 C9.51243705,17 10.1907523,16.8706013 10.8316801,16.6187716 C11.4501755,16.3759002 12.0035098,16.0275192 12.4820693,15.5835822 C12.9563559,15.1396452 13.3323669,14.6220505 13.5919426,14.0477194 C13.8622005,13.4504948 14,12.8164412 14,12.1654664 C14,11.5125007 13.8632687,10.880438 13.5919426,10.2832133 C13.3312986,9.70788688 12.9574241,9.19029217 12.4810011,8.74635517" id="Shape"></path>
        </g>
        <text id="THEORY" font-family="ProximaNova-Extrabld, Proxima Nova" font-size="25" font-weight="600" fill="#000000">
            <tspan x="91" y="18">THEORY</tspan>
        </text>
    </g>
</svg>