<svg id="Layer_1" data-name="Layer 1" xmlns="http://www.w3.org/2000/svg" viewBox="0 0 14 14"><defs><style>.cls-1{fill:#fda305;}</style></defs><path class="cls-1" d="M13.94,7A6.94,6.94,0,1,1,7,.06,6.95,6.95,0,0,1,13.94,7ZM7,1.7A5.3,5.3,0,1,0,12.3,7,5.28,5.28,0,0,0,7,1.7Z"/><path class="cls-1" d="M5.37,7c0-.65,0-1.3,0-1.95a.58.58,0,0,1,1-.51l2.94,2a.57.57,0,0,1,0,1l-3,2a.57.57,0,0,1-.88-.35,1.69,1.69,0,0,1,0-.23C5.37,8.28,5.37,7.63,5.37,7Z"/><path class="cls-1" d="M-4.48,12.6a72.28,72.28,0,0,1-10.06,8.78c-12.1,9.24-24.71,18.88-34.73,30.09-1,1.13-2,2.27-3,3.42h27.59c15.14-.1,27.36-11.37,27.36-25.34A24,24,0,0,0-4.48,12.6Z"/></svg>